<svg width="26" height="26" viewBox="0 0 26 26" fill="none" xmlns="http://www.w3.org/2000/svg">
<path d="M2.79065 21.9594V19.5919H5.21596V10.5513C5.21596 8.75771 5.74377 7.14959 6.7994 5.72688C7.85482 4.30417 9.2494 3.39782 10.9831 3.00782V2.30782C10.9831 1.74615 11.1792 1.26875 11.5713 0.875629C11.9636 0.482296 12.4398 0.285629 13 0.285629C13.5602 0.285629 14.0365 0.482296 14.4288 0.875629C14.8209 1.26875 15.0169 1.74615 15.0169 2.30782V3.00782C16.7523 3.39448 18.1481 4.29938 19.2044 5.7225C20.2609 7.14542 20.7891 8.755 20.7891 10.5513V19.5919H23.2144V21.9594H2.79065ZM13.005 25.7816C12.2977 25.7816 11.6922 25.5297 11.1885 25.0259C10.6847 24.5222 10.4328 23.9167 10.4328 23.2094H15.5747C15.5747 23.9183 15.3227 24.5243 14.8188 25.0272C14.3148 25.5301 13.7102 25.7816 13.005 25.7816ZM0.900024 10.5169C0.900024 8.49938 1.34711 6.64823 2.24127 4.96344C3.13523 3.27865 4.33648 1.87834 5.84502 0.762505L7.21909 2.61344C5.99825 3.51886 5.0244 4.65511 4.29752 6.02219C3.57086 7.38907 3.20752 8.88729 3.20752 10.5169H0.900024ZM22.7975 10.5169C22.7975 8.88646 22.433 7.38782 21.7041 6.02094C20.9749 4.65407 20.0005 3.51823 18.781 2.61344L20.16 0.762505C21.6644 1.8798 22.8647 3.28021 23.761 4.96375C24.657 6.6473 25.105 8.49834 25.105 10.5169H22.7975Z" fill="#494949"/>
</svg>
