<svg width="32" height="40" viewBox="0 0 32 40" fill="none" xmlns="http://www.w3.org/2000/svg">
<path d="M13.5 34C14.7667 34 15.8333 33.5667 16.7 32.7C17.5667 31.8333 18 30.7667 18 29.5V23C18 22.4477 18.4477 22 19 22H23C23.5523 22 24 21.5523 24 21V19C24 18.4477 23.5523 18 23 18H17C16.4477 18 16 18.4477 16 19V25.75C15.6333 25.4833 15.2417 25.2917 14.825 25.175C14.4083 25.0583 13.9667 25 13.5 25C12.2333 25 11.1667 25.4333 10.3 26.3C9.43333 27.1667 9 28.2333 9 29.5C9 30.7667 9.43333 31.8333 10.3 32.7C11.1667 33.5667 12.2333 34 13.5 34ZM4 40C2.9 40 1.95833 39.6083 1.175 38.825C0.391667 38.0417 0 37.1 0 36V4C0 2.9 0.391667 1.95833 1.175 1.175C1.95833 0.391667 2.9 0 4 0H19.5858C19.851 0 20.1054 0.105357 20.2929 0.292893L31.7071 11.7071C31.8946 11.8946 32 12.149 32 12.4142V36C32 37.1 31.6083 38.0417 30.825 38.825C30.0417 39.6083 29.1 40 28 40H4ZM18 13C18 13.5523 18.4477 14 19 14H25.5858C26.4767 14 26.9229 12.9229 26.2929 12.2929L19.7071 5.70711C19.0771 5.07714 18 5.52331 18 6.41421V13Z" fill="black"/>
</svg>
