<svg width="11" height="11" viewBox="0 0 11 11" fill="none" xmlns="http://www.w3.org/2000/svg">
<path d="M6.38121 5.5L10.3187 1.56875C10.4364 1.45106 10.5025 1.29144 10.5025 1.125C10.5025 0.958562 10.4364 0.79894 10.3187 0.68125C10.201 0.56356 10.0414 0.497443 9.87496 0.497443C9.70852 0.497443 9.5489 0.56356 9.43121 0.68125L5.49996 4.61875L1.56871 0.68125C1.45102 0.56356 1.2914 0.497443 1.12496 0.497443C0.958523 0.497443 0.798902 0.56356 0.681212 0.68125C0.563522 0.79894 0.497405 0.958562 0.497405 1.125C0.497405 1.29144 0.563522 1.45106 0.681212 1.56875L4.61871 5.5L0.681212 9.43125C0.622632 9.48935 0.576135 9.55848 0.544405 9.63464C0.512674 9.7108 0.496338 9.79249 0.496338 9.875C0.496338 9.95751 0.512674 10.0392 0.544405 10.1154C0.576135 10.1915 0.622632 10.2606 0.681212 10.3187C0.739314 10.3773 0.808439 10.4238 0.884601 10.4556C0.960763 10.4873 1.04245 10.5036 1.12496 10.5036C1.20747 10.5036 1.28916 10.4873 1.36532 10.4556C1.44148 10.4238 1.51061 10.3773 1.56871 10.3187L5.49996 6.38125L9.43121 10.3187C9.48931 10.3773 9.55844 10.4238 9.6346 10.4556C9.71076 10.4873 9.79245 10.5036 9.87496 10.5036C9.95747 10.5036 10.0392 10.4873 10.1153 10.4556C10.1915 10.4238 10.2606 10.3773 10.3187 10.3187C10.3773 10.2606 10.4238 10.1915 10.4555 10.1154C10.4872 10.0392 10.5036 9.95751 10.5036 9.875C10.5036 9.79249 10.4872 9.7108 10.4555 9.63464C10.4238 9.55848 10.3773 9.48935 10.3187 9.43125L6.38121 5.5Z" fill="black"/>
</svg>
