<svg width="34" height="44" viewBox="0 0 34 44" fill="none" xmlns="http://www.w3.org/2000/svg">
<path d="M32.9026 23.0702C29.5656 14.3982 17.6841 13.9306 20.5535 1.3264C20.766 0.391189 19.7671 -0.331477 18.9594 0.157386C11.2438 4.70594 5.69631 13.8243 10.3511 25.7695C10.7337 26.7473 9.58596 27.6612 8.75702 27.0236C4.90988 24.1117 4.50604 19.9244 4.84612 16.9275C4.97365 15.8222 3.52831 15.2909 2.91192 16.2048C1.46659 18.4153 0 21.9862 0 27.3637C0.807686 39.2664 10.8613 42.9223 14.4746 43.3899C19.6395 44.0488 25.2296 43.0923 29.2467 39.4152C33.6678 35.313 35.2831 28.7665 32.9026 23.0702ZM13.178 33.7614C16.2387 33.0175 17.8116 30.807 18.2367 28.8515C18.9381 25.8121 16.1962 22.8364 18.0454 18.0328C18.7468 22.0074 24.9958 24.4943 24.9958 28.8303C25.1658 34.2077 19.342 38.8201 13.178 33.7614Z" fill="#000"/>
</svg>
