<svg width="32" height="45" viewBox="0 0 32 45" fill="none" xmlns="http://www.w3.org/2000/svg">
<path d="M27.7421 34.7228H3.5601C0.142601 34.7228 -1.0254 32.4517 0.986162 29.6831L9.61643 17.5488H21.6858L30.3161 29.6831C32.3277 32.4517 31.1596 34.7228 27.7421 34.7228Z" fill="black"/>
<path d="M24.3714 18H6.62864C4.11826 18 3.24601 16.2477 4.71394 14.1183L13.5853 1.16451C14.6277 -0.388171 16.3722 -0.388171 17.4147 1.16451L26.2861 14.1183C27.754 16.2477 26.8817 18 24.3714 18Z" fill="black"/>
<path d="M17.2742 34.7259V43.3778C17.2742 44.2646 16.5388 45 15.652 45C14.7652 45 14.0298 44.2646 14.0298 43.3778V34.7259H17.2742Z" fill="black"/>
</svg>
