<svg width="32" height="45" viewBox="0 0 32 45" fill="none" xmlns="http://www.w3.org/2000/svg">
<path d="M24.67 17.5525H6.63092C4.07861 17.5525 3.19179 15.8438 4.68424 13.7673L13.7038 1.13556C14.7636 -0.37852 16.5373 -0.37852 17.5971 1.13556L26.6167 13.7673C28.1092 15.8438 27.2223 17.5525 24.67 17.5525Z" fill="#000"/>
<path d="M27.7421 34.7228H3.5601C0.142601 34.7228 -1.0254 32.4517 0.986162 29.6831L9.61643 17.5488H21.6858L30.3161 29.6831C32.3277 32.4517 31.1596 34.7228 27.7421 34.7228Z" fill="#000"/>
<path d="M17.2742 34.7259V43.3778C17.2742 44.2646 16.5388 45 15.652 45C14.7652 45 14.0298 44.2646 14.0298 43.3778V34.7259H17.2742Z" fill="#000"/>
</svg>
