<svg width="30" height="25" viewBox="0 0 30 25" fill="none" xmlns="http://www.w3.org/2000/svg">
<path d="M17.1429 0.833336C10.3979 0.833336 4.92857 6.1507 4.92857 12.7083H0.85714L6.13643 17.841L6.23143 18.0257L11.7143 12.7083H7.64285C7.64285 7.60209 11.8907 3.47222 17.1429 3.47222C22.395 3.47222 26.6429 7.60209 26.6429 12.7083C26.6429 17.8146 22.395 21.9444 17.1429 21.9444C14.5236 21.9444 12.1486 20.9021 10.4386 19.2264L8.51143 21.1C10.7236 23.2507 13.7636 24.5833 17.1429 24.5833C23.8879 24.5833 29.3571 19.266 29.3571 12.7083C29.3571 6.1507 23.8879 0.833336 17.1429 0.833336ZM15.7857 7.43056V14.0278L21.5943 17.3792L22.5714 15.7826L17.8214 13.0382V7.43056H15.7857Z" fill="#000"/>
</svg>
