<svg width="30" height="29" viewBox="0 0 30 29" fill="none" xmlns="http://www.w3.org/2000/svg">
<path d="M25.362 21.348C25.362 21.3963 25.3812 21.4426 25.4153 21.4767C25.4494 21.5108 25.4957 21.53 25.544 21.53C25.5923 21.53 25.6386 21.5108 25.6727 21.4767C25.7068 21.4426 25.726 21.3963 25.726 21.348C25.726 21.2997 25.7068 21.2534 25.6727 21.2193C25.6386 21.1852 25.5923 21.166 25.544 21.166C25.4957 21.166 25.4494 21.1852 25.4153 21.2193C25.3812 21.2534 25.362 21.2997 25.362 21.348ZM21.344 25.494C21.344 25.59 21.3821 25.6821 21.45 25.75C21.5179 25.8179 21.61 25.856 21.706 25.856C21.802 25.856 21.8941 25.8179 21.962 25.75C22.0299 25.6821 22.068 25.59 22.068 25.494C22.068 25.398 22.0299 25.3059 21.962 25.238C21.8941 25.1701 21.802 25.132 21.706 25.132C21.61 25.132 21.5179 25.1701 21.45 25.238C21.3821 25.3059 21.344 25.398 21.344 25.494ZM15.928 27.628C15.928 27.7723 15.9853 27.9106 16.0873 28.0127C16.1894 28.1147 16.3277 28.172 16.472 28.172C16.6163 28.172 16.7546 28.1147 16.8567 28.0127C16.9587 27.9106 17.016 27.7723 17.016 27.628C17.016 27.5566 17.0019 27.4858 16.9746 27.4198C16.9473 27.3538 16.9072 27.2938 16.8567 27.2433C16.8062 27.1928 16.7462 27.1527 16.6802 27.1254C16.6142 27.0981 16.5434 27.084 16.472 27.084C16.4006 27.084 16.3298 27.0981 16.2638 27.1254C16.1978 27.1527 16.1378 27.1928 16.0873 27.2433C16.0368 27.2938 15.9967 27.3538 15.9694 27.4198C15.9421 27.4858 15.928 27.5566 15.928 27.628ZM10.098 27.342C10.098 27.534 10.1743 27.7182 10.3101 27.8539C10.4458 27.9897 10.63 28.066 10.822 28.066C11.014 28.066 11.1982 27.9897 11.3339 27.8539C11.4697 27.7182 11.546 27.534 11.546 27.342C11.546 27.15 11.4697 26.9658 11.3339 26.8301C11.1982 26.6943 11.014 26.618 10.822 26.618C10.63 26.618 10.4458 26.6943 10.3101 26.8301C10.1743 26.9658 10.098 27.15 10.098 27.342ZM4.926 24.688C4.926 24.807 4.94943 24.9248 4.99497 25.0347C5.0405 25.1446 5.10723 25.2445 5.19136 25.3286C5.27549 25.4128 5.37537 25.4795 5.48529 25.525C5.59521 25.5706 5.71302 25.594 5.832 25.594C5.95098 25.594 6.06879 25.5706 6.17871 25.525C6.28863 25.4795 6.38851 25.4128 6.47264 25.3286C6.55677 25.2445 6.6235 25.1446 6.66903 25.0347C6.71457 24.9248 6.738 24.807 6.738 24.688C6.738 24.569 6.71457 24.4512 6.66903 24.3413C6.6235 24.2314 6.55677 24.1315 6.47264 24.0474C6.38851 23.9632 6.28863 23.8965 6.17871 23.851C6.06879 23.8054 5.95098 23.782 5.832 23.782C5.71302 23.782 5.59521 23.8054 5.48529 23.851C5.37537 23.8965 5.27549 23.9632 5.19136 24.0474C5.10723 24.1315 5.0405 24.2314 4.99497 24.3413C4.94943 24.4512 4.926 24.569 4.926 24.688ZM1.344 20.176C1.344 20.4646 1.45863 20.7413 1.66267 20.9453C1.86671 21.1494 2.14344 21.264 2.432 21.264C2.72056 21.264 2.99729 21.1494 3.20133 20.9453C3.40537 20.7413 3.52 20.4646 3.52 20.176C3.52 19.8874 3.40537 19.6107 3.20133 19.4067C2.99729 19.2026 2.72056 19.088 2.432 19.088C2.14344 19.088 1.86671 19.2026 1.66267 19.4067C1.45863 19.6107 1.344 19.8874 1.344 20.176ZM0 14.636C-2.48128e-09 14.8025 0.0327978 14.9674 0.0965208 15.1212C0.160244 15.2751 0.253644 15.4149 0.371389 15.5326C0.489133 15.6504 0.628917 15.7438 0.782758 15.8075C0.936598 15.8712 1.10148 15.904 1.268 15.904C1.43452 15.904 1.5994 15.8712 1.75324 15.8075C1.90708 15.7438 2.04687 15.6504 2.16461 15.5326C2.28236 15.4149 2.37576 15.2751 2.43948 15.1212C2.5032 14.9674 2.536 14.8025 2.536 14.636C2.536 14.2997 2.40241 13.9772 2.16461 13.7394C1.92682 13.5016 1.60429 13.368 1.268 13.368C0.931706 13.368 0.609185 13.5016 0.371389 13.7394C0.133593 13.9772 0 14.2997 0 14.636ZM1.106 9.132C1.106 9.32242 1.14351 9.51097 1.21637 9.68689C1.28924 9.86281 1.39605 10.0227 1.5307 10.1573C1.66534 10.2919 1.82519 10.3988 2.00111 10.4716C2.17703 10.5445 2.36558 10.582 2.556 10.582C2.94056 10.582 3.30938 10.4292 3.58131 10.1573C3.85323 9.88538 4.006 9.51656 4.006 9.132C4.006 8.74744 3.85323 8.37862 3.58131 8.1067C3.30938 7.83477 2.94056 7.682 2.556 7.682C2.17144 7.682 1.80262 7.83477 1.5307 8.1067C1.25877 8.37862 1.106 8.74744 1.106 9.132ZM4.424 4.694C4.424 4.90832 4.46621 5.12054 4.54823 5.31854C4.63024 5.51654 4.75046 5.69645 4.902 5.848C5.05355 5.99954 5.23346 6.11976 5.43146 6.20177C5.62946 6.28379 5.84168 6.326 6.056 6.326C6.27032 6.326 6.48254 6.28379 6.68054 6.20177C6.87854 6.11976 7.05845 5.99954 7.21 5.848C7.36154 5.69645 7.48176 5.51654 7.56377 5.31854C7.64579 5.12054 7.688 4.90832 7.688 4.694C7.688 4.26117 7.51606 3.84606 7.21 3.54C6.90394 3.23394 6.48883 3.062 6.056 3.062C5.62317 3.062 5.20806 3.23394 4.902 3.54C4.59594 3.84606 4.424 4.26117 4.424 4.694ZM9.296 2.152C9.296 2.38996 9.34287 2.62558 9.43393 2.84542C9.52499 3.06526 9.65846 3.26502 9.82672 3.43328C9.99498 3.60154 10.1947 3.73501 10.4146 3.82607C10.6344 3.91713 10.87 3.964 11.108 3.964C11.5886 3.964 12.0495 3.77309 12.3893 3.43328C12.7291 3.09346 12.92 2.63257 12.92 2.152C12.92 1.67143 12.7291 1.21054 12.3893 0.870722C12.0495 0.530906 11.5886 0.34 11.108 0.34C10.6274 0.34 10.1665 0.530906 9.82672 0.870722C9.48691 1.21054 9.296 1.67143 9.296 2.152ZM14.768 1.994C14.768 2.52284 14.9781 3.03002 15.352 3.40397C15.726 3.77792 16.2332 3.988 16.762 3.988C17.2908 3.988 17.798 3.77792 18.172 3.40397C18.5459 3.03002 18.756 2.52284 18.756 1.994C18.756 1.46516 18.5459 0.957977 18.172 0.584029C17.798 0.210082 17.2908 0 16.762 0C16.2332 0 15.726 0.210082 15.352 0.584029C14.9781 0.957977 14.768 1.46516 14.768 1.994ZM19.778 4.248C19.778 4.82458 20.007 5.37755 20.4147 5.78525C20.8225 6.19295 21.3754 6.422 21.952 6.422C22.5286 6.422 23.0815 6.19295 23.4893 5.78525C23.897 5.37755 24.126 4.82458 24.126 4.248C24.126 3.67142 23.897 3.11845 23.4893 2.71075C23.0815 2.30305 22.5286 2.074 21.952 2.074C21.3754 2.074 20.8225 2.30305 20.4147 2.71075C20.007 3.11845 19.778 3.67142 19.778 4.248ZM23.338 8.482C23.338 8.79139 23.3989 9.09776 23.5173 9.3836C23.6357 9.66945 23.8093 9.92917 24.0281 10.1479C24.2468 10.3667 24.5066 10.5403 24.7924 10.6587C25.0782 10.7771 25.3846 10.838 25.694 10.838C26.0034 10.838 26.3098 10.7771 26.5956 10.6587C26.8814 10.5403 27.1412 10.3667 27.3599 10.1479C27.5787 9.92917 27.7523 9.66945 27.8707 9.3836C27.9891 9.09776 28.05 8.79139 28.05 8.482C28.05 8.17261 27.9891 7.86624 27.8707 7.5804C27.7523 7.29455 27.5787 7.03483 27.3599 6.81606C27.1412 6.59728 26.8814 6.42374 26.5956 6.30534C26.3098 6.18694 26.0034 6.126 25.694 6.126C25.3846 6.126 25.0782 6.18694 24.7924 6.30534C24.5066 6.42374 24.2468 6.59728 24.0281 6.81606C23.8093 7.03483 23.6357 7.29455 23.5173 7.5804C23.3989 7.86624 23.338 8.17261 23.338 8.482ZM24.754 13.966C24.754 14.2993 24.8196 14.6293 24.9472 14.9373C25.0747 15.2452 25.2617 15.525 25.4974 15.7606C25.733 15.9963 26.0128 16.1833 26.3208 16.3108C26.6287 16.4384 26.9587 16.504 27.292 16.504C27.9651 16.504 28.6107 16.2366 29.0866 15.7606C29.5626 15.2847 29.83 14.6391 29.83 13.966C29.83 13.2929 29.5626 12.6473 29.0866 12.1714C28.6107 11.6954 27.9651 11.428 27.292 11.428C26.6189 11.428 25.9733 11.6954 25.4974 12.1714C25.0214 12.6473 24.754 13.2929 24.754 13.966Z" fill="#149CFF"/>
</svg>
