<svg width="5" height="6" viewBox="0 0 5 6" fill="none" xmlns="http://www.w3.org/2000/svg">
<path d="M0.9375 6C0.765625 6 0.61849 5.93472 0.496094 5.80417C0.373698 5.67361 0.3125 5.51667 0.3125 5.33333V1C0.139911 1 0 0.860089 0 0.6875V0.666667C0 0.482572 0.149238 0.333333 0.333333 0.333333H1.5625C1.5625 0.149238 1.71174 0 1.89583 0H3.10417C3.28826 0 3.4375 0.149238 3.4375 0.333333H4.66667C4.85076 0.333333 5 0.482572 5 0.666667V0.6875C5 0.860089 4.86009 1 4.6875 1V5.33333C4.6875 5.51667 4.6263 5.67361 4.50391 5.80417C4.38151 5.93472 4.23438 6 4.0625 6H0.9375ZM1.5625 4.35417C1.5625 4.52676 1.70241 4.66667 1.875 4.66667C2.04759 4.66667 2.1875 4.52676 2.1875 4.35417V1.97917C2.1875 1.80658 2.04759 1.66667 1.875 1.66667C1.70241 1.66667 1.5625 1.80658 1.5625 1.97917V4.35417ZM2.8125 4.35417C2.8125 4.52676 2.95241 4.66667 3.125 4.66667C3.29759 4.66667 3.4375 4.52676 3.4375 4.35417V1.97917C3.4375 1.80658 3.29759 1.66667 3.125 1.66667C2.95241 1.66667 2.8125 1.80658 2.8125 1.97917V4.35417Z" fill="white"/>
</svg>
