<svg width="30" height="26" viewBox="0 0 30 26" fill="none" xmlns="http://www.w3.org/2000/svg">
<path d="M2.50998 26C0.960267 26 -0.000651434 24.3136 0.789395 22.9804L13.2794 1.90348C14.0541 0.59629 15.9459 0.596291 16.7206 1.90348L29.2106 22.9804C30.0007 24.3136 29.0397 26 27.49 26H2.50998ZM15 21.7368C15.4121 21.7368 15.7576 21.6007 16.0364 21.3283C16.3152 21.0559 16.4545 20.7184 16.4545 20.3158C16.4545 19.9132 16.3152 19.5757 16.0364 19.3033C15.7576 19.0309 15.4121 18.8947 15 18.8947C14.5879 18.8947 14.2424 19.0309 13.9636 19.3033C13.6848 19.5757 13.5455 19.9132 13.5455 20.3158C13.5455 20.7184 13.6848 21.0559 13.9636 21.3283C14.2424 21.6007 14.5879 21.7368 15 21.7368ZM13.5455 16.0191C13.5455 16.8225 14.1967 17.4737 15 17.4737V17.4737C15.8033 17.4737 16.4545 16.8225 16.4545 16.0191V11.823C16.4545 11.0196 15.8033 10.3684 15 10.3684V10.3684C14.1967 10.3684 13.5455 11.0196 13.5455 11.823V16.0191Z" fill="#FF6B00"/>
</svg>
