<svg width="42" height="35" viewBox="0 0 42 35" fill="none" xmlns="http://www.w3.org/2000/svg">
<path d="M30.8146 27.3839C28.0413 27.3839 26.2951 28.2467 24.7544 29.0273C23.4191 29.7052 22.3303 30.2599 20.543 30.2599C18.6942 30.2599 17.667 29.7463 16.3317 29.0273C14.791 28.2467 13.1065 27.3839 10.2715 27.3839C7.43658 27.3839 5.75205 28.2467 4.21132 29.0273C3.32797 29.4793 2.54734 29.8696 1.60236 30.0956C0.67792 30.301 0 31.0405 0 31.965V32.1704C0 33.403 1.15041 34.2863 2.34191 34.0398C3.86209 33.7317 5.0125 33.1565 6.0602 32.6224C7.3955 31.9444 8.46373 31.3898 10.2715 31.3898C12.0793 31.3898 13.1475 31.9034 14.4828 32.6224C16.0236 33.403 17.7081 34.2658 20.543 34.2658C23.378 34.2658 25.0625 33.403 26.6032 32.6224C27.9385 31.9444 29.0273 31.3898 30.8146 31.3898C32.6634 31.3898 33.6906 31.9034 35.0259 32.6224C36.0941 33.1565 37.2445 33.7522 38.7853 34.0604C39.9768 34.2863 41.0861 33.3825 41.0861 32.191V32.0061C41.0861 31.0611 40.3876 30.3215 39.4632 30.1161C38.5182 29.9107 37.7581 29.5204 36.8748 29.0479C35.334 28.2467 33.5879 27.3839 30.8146 27.3839ZM30.8146 18.2422C28.0413 18.2422 26.2951 19.1256 24.7544 19.8857C23.4191 20.543 22.3303 21.1182 20.543 21.1182C18.6942 21.1182 17.667 20.6047 16.3317 19.8857C14.791 19.105 13.1065 18.2422 10.2715 18.2422C7.43658 18.2422 5.75205 19.1256 4.21132 19.8857C3.32797 20.3171 2.54734 20.7279 1.58181 20.9539C0.67792 21.1593 0 21.8989 0 22.8233V23.0288C0 24.2408 1.10932 25.1447 2.30082 24.8982C3.84155 24.59 4.99196 23.9943 6.0602 23.4807C7.3955 22.7617 8.42265 22.2481 10.2715 22.2481C12.1204 22.2481 13.1475 22.7617 14.4828 23.4807C16.0236 24.2613 17.7081 25.1241 20.543 25.1241C23.378 25.1241 25.0625 24.2408 26.6032 23.4807C27.9385 22.7617 28.9657 22.2481 30.8146 22.2481C32.6634 22.2481 33.6906 22.7617 35.0259 23.4807C36.0941 24.0148 37.2445 24.6106 38.7853 24.9187C39.9768 25.1447 41.0861 24.2408 41.0861 23.0288V22.8439C41.0861 21.8989 40.3876 21.1593 39.4632 20.9539C38.5182 20.7485 37.7581 20.3582 36.8748 19.8857C35.334 19.105 33.5879 18.2422 30.8146 18.2422ZM36.8748 1.64344C35.334 0.862808 33.629 0 30.8146 0C28.0002 0 26.2951 0.862808 24.7544 1.64344C23.4191 2.30082 22.3303 2.87603 20.543 2.87603C18.6942 2.87603 17.667 2.36245 16.3317 1.64344C14.791 0.883351 13.1065 0 10.2715 0C7.43658 0 5.75205 0.862808 4.21132 1.64344C3.32797 2.09539 2.54734 2.48571 1.60236 2.71168C0.67792 2.91711 0 3.65666 0 4.5811V4.7249C0 5.95748 1.10932 6.86138 2.30082 6.61486C3.84155 6.30672 4.99196 5.71097 6.0602 5.19739C7.3955 4.51947 8.46373 3.96481 10.2715 3.96481C12.0793 3.96481 13.1475 4.47838 14.4828 5.19739C16.0236 5.97803 17.7081 6.84083 20.543 6.84083C23.378 6.84083 25.0625 5.95748 26.6032 5.19739C27.9385 4.54001 29.0273 3.96481 30.8146 3.96481C32.6634 3.96481 33.6906 4.47838 35.0259 5.19739C36.0941 5.73151 37.2445 6.32726 38.7853 6.6354C39.9768 6.86138 41.0861 5.95748 41.0861 4.74544V4.56056C41.0861 3.61558 40.3876 2.87603 39.4632 2.6706C38.5182 2.46517 37.7581 2.09539 36.8748 1.64344ZM30.8146 9.10057C28.0413 9.10057 26.2951 9.98392 24.7544 10.744C23.4191 11.463 22.3919 11.9766 20.543 11.9766C18.6942 11.9766 17.667 11.463 16.3317 10.744C14.791 9.96338 13.1065 9.10057 10.2715 9.10057C7.43658 9.10057 5.75205 9.98392 4.21132 10.744C3.32797 11.2165 2.56788 11.6068 1.6229 11.8123C0.698463 12.0177 0 12.7572 0 13.7022V13.8871C0 15.0991 1.10932 16.003 2.30082 15.7565C3.84155 15.4484 4.99196 14.8526 6.0602 14.339C7.3955 13.6817 8.48428 13.1065 10.2715 13.1065C12.0588 13.1065 13.1475 13.62 14.4828 14.339C16.0236 15.1197 17.7081 15.9825 20.543 15.9825C23.378 15.9825 25.0625 15.0991 26.6032 14.339C27.9385 13.6817 29.0273 13.1065 30.8146 13.1065C32.6634 13.1065 33.6906 13.62 35.0259 14.339C36.0941 14.8732 37.2445 15.4689 38.7853 15.7771C39.9768 16.003 41.0861 15.0991 41.0861 13.9076V13.7228C41.0861 12.7778 40.3876 12.0382 39.4632 11.8328C38.5182 11.6274 37.7581 11.237 36.8748 10.7646C35.334 9.96338 33.5879 9.10057 30.8146 9.10057Z" fill="#000"/>
</svg>
